 http://www.imdb.com/title/tt1065060/

encoded by bigperm    
http://img441.imageshack.us/img441/5863/547pdk.gif


As five underworld heavies settle in for an all night stay at an abandoned warehouse and former film studio.


Paul Cram...............Craig Teller
Chars Bonin.............Randy Hancock
Carson Lee..............Steve Johnson
Cody Lyman..............Paul White
Danny Salmen............Mike Hancock
Meisha Johnson..........Jennifer Wilkins (as Meisha P.J. Johnson)
Kathryn Vento...........Ghost #1
Rachel Grubb............Ghost #2
Carly McMenoman.........Ghost #3
Kati Batchelder.........Gallery Owner
Mark Wipple.............Body Guard #1
Terry Jones.............Body Guard #2
Daniel Mayer............Mr. Hancock
 
http://img18.imageshack.us/slideshow/webplayer.php?id=131bl.png

General:

Format : MPEG-4
Format profile : Base Media / Version 2
Codec ID : mp42
File size : 1.05 GiB
Duration : 1h 31mn
Overall bit rate : 1 634 Kbps

Video:

ID : 1
Format : AVC
Format/Info : Advanced Video Codec
Format profile : Main@L3.0
Format settings, CABAC : Yes
Format settings, ReFrames : 2 frames
Codec ID : avc1
Codec ID/Info : Advanced Video Coding
Duration : 1h 31mn
Bit rate mode : Variable
Bit rate : 1 477 Kbps
Width : 718 pixels
Height : 480 pixels
Display aspect ratio : 16:9
Frame rate mode : Variable
Frame rate : 29.970 fps
Minimum frame rate : 14.985 fps
Maximum frame rate : 29.970 fps
Resolution : 8 bits
Colorimetry : 4:2:0
Scan type : Progressive
Bits/(Pixel*Frame) : 0.143
Stream size : 969 MiB (90%)
Writing library : x264 core 79

Audio:

ID : 2
Format : AAC
Format/Info : Advanced Audio Codec
Format version : Version 4
Format profile : LC
Format settings, SBR : No
Codec ID : 40
Duration : 1h 31mn
Bit rate mode : Variable
Bit rate : 152 Kbps
Maximum bit rate : 199 Kbps
Channel(s) : 2 channels
Channel positions : Front: L R
Sampling rate : 48.0 KHz
Stream size : 99.8 MiB (9%)
Language : English